<svg width="426" height="92" viewBox="0 0 426 92" fill="none" xmlns="http://www.w3.org/2000/svg">
<path d="M21.875 31.4375H50.625V92H21.875V31.4375ZM0.25 9.0625H72.25V27.125H0.25V9.0625ZM120.25 92V42.1875H80.9375V33.9375L89.25 25.625H130.688L147.25 42.1875V92H120.25ZM115.875 53.375V64.875H101.625V76.5H115.875V83.8125L107.625 92H86.5L75.375 81.0625V64.4375L86.5 53.375H115.875ZM174.188 25.625H185.25V49.0625H216.75L231.125 63.5625V76.5L215.688 92H203.5V66.9375H173.625L159.25 53.125V40.5L174.188 25.625ZM186.875 79.8125H199.125V92L170.688 91.9375L159.188 78.3125V73H186.875V79.8125ZM203.5 37.8125H189.625V25.625H219L228.875 35.5V43H203.5V37.8125ZM269.625 92H242V0.3125H269.625V92ZM273.938 82.625V44.75L286.688 25.75L315.25 25.6875L273.938 82.625ZM316.688 92H286.688L282.125 78.625L298.438 56.625L316.688 92Z" fill="white"/>
<path d="M324.875 9.0625H354.25L376.5 45.9375L394 15.9375V57.6875L374.062 92L324.875 9.0625ZM398.062 92V9.0625H425.688V92H398.062ZM324.812 92V16.75L350.625 60.0625V92H324.812Z" fill="#137CDE"/>
</svg>
